<?xml version="1.0" encoding="UTF-8" standalone="no"?>
<!-- Created with Inkscape (http://www.inkscape.org/) -->

<svg
   xmlns:dc="http://purl.org/dc/elements/1.1/"
   xmlns:cc="http://creativecommons.org/ns#"
   xmlns:rdf="http://www.w3.org/1999/02/22-rdf-syntax-ns#"
   xmlns:svg="http://www.w3.org/2000/svg"
   xmlns="http://www.w3.org/2000/svg"
   xmlns:xlink="http://www.w3.org/1999/xlink"
   xmlns:sodipodi="http://sodipodi.sourceforge.net/DTD/sodipodi-0.dtd"
   xmlns:inkscape="http://www.inkscape.org/namespaces/inkscape"
   width="1280"
   height="1024"
   id="svg2"
   version="1.1"
   inkscape:version="0.48.2 r9819"
   sodipodi:docname="mainmenu2.svg">
  <defs
     id="defs4">
    <linearGradient
       id="linearGradient3870">
      <stop
         style="stop-color:#ccccff;stop-opacity:1;"
         offset="0"
         id="stop3872" />
      <stop
         style="stop-color:#005ae1;stop-opacity:1;"
         offset="1"
         id="stop3874" />
    </linearGradient>
    <linearGradient
       inkscape:collect="always"
       id="linearGradient3862">
      <stop
         style="stop-color:#d45500;stop-opacity:1;"
         offset="0"
         id="stop3864" />
      <stop
         style="stop-color:#d45500;stop-opacity:0;"
         offset="1"
         id="stop3866" />
    </linearGradient>
    <filter
       inkscape:collect="always"
       id="filter3840"
       x="-0.078231293"
       width="1.1564626"
       y="-0.25746268"
       height="1.5149254">
      <feGaussianBlur
         inkscape:collect="always"
         stdDeviation="41.703858"
         id="feGaussianBlur3842" />
    </filter>
    <linearGradient
       inkscape:collect="always"
       xlink:href="#linearGradient3862"
       id="linearGradient3868"
       x1="518.24005"
       y1="920.32922"
       x2="518.24005"
       y2="1061.4387"
       gradientUnits="userSpaceOnUse" />
    <radialGradient
       inkscape:collect="always"
       xlink:href="#linearGradient3870"
       id="radialGradient3876"
       cx="640"
       cy="875.92078"
       fx="640"
       fy="875.92078"
       r="640"
       gradientTransform="matrix(1.8587214,-0.03788479,0.02454154,1.2040686,-571.07813,-221.61341)"
       gradientUnits="userSpaceOnUse" />
  </defs>
  <sodipodi:namedview
     id="base"
     pagecolor="#ffffff"
     bordercolor="#666666"
     borderopacity="1.0"
     inkscape:pageopacity="0.0"
     inkscape:pageshadow="2"
     inkscape:zoom="0.70710678"
     inkscape:cx="830.41751"
     inkscape:cy="291.27026"
     inkscape:document-units="px"
     inkscape:current-layer="layer1"
     showgrid="false"
     inkscape:window-width="1920"
     inkscape:window-height="1047"
     inkscape:window-x="1280"
     inkscape:window-y="0"
     inkscape:window-maximized="1"
     showguides="true"
     inkscape:guide-bbox="true" />
  <metadata
     id="metadata7">
    <rdf:RDF>
      <cc:Work
         rdf:about="">
        <dc:format>image/svg+xml</dc:format>
        <dc:type
           rdf:resource="http://purl.org/dc/dcmitype/StillImage" />
        <dc:title />
      </cc:Work>
    </rdf:RDF>
  </metadata>
  <g
     inkscape:label="Livello 1"
     inkscape:groupmode="layer"
     id="layer1"
     transform="translate(0,-28.362183)">
    <rect
       style="fill:url(#radialGradient3876);fill-opacity:1;fill-rule:nonzero;stroke:none"
       id="rect3844"
       width="1280"
       height="1024"
       x="0"
       y="28.362183" />
    <path
       style="fill:url(#linearGradient3868);fill-opacity:1;stroke:none;filter:url(#filter3840);opacity:0.66789668"
       d="m 0.299086,705.86063 130.551204,-42.55002 59.95684,11.60455 55.12162,16.43978 38.68184,50.28639 20.30796,54.15456 14.50569,50.28639 49.31934,24.17614 56.08866,8.70342 190.50805,-3.86819 21.27501,-6.76932 8.70341,0 10.6375,7.73637 21.27502,5.80227 49.31934,3.86819 147.95802,-16.43978 34.81365,-25.14319 33.84662,-29.97843 36.74772,-8.70341 56.08872,-1.9341 17.4068,25.1432 35.7807,38.68184 130.5512,-9.67046 59.9569,-0.96705 0,253.53432 -1277.467724,0 z"
       id="path2985-6"
       inkscape:connector-curvature="0"
       sodipodi:nodetypes="ccccccccccccccccccccccccccc" />
    <path
       style="fill:#000000;stroke:#000000;stroke-width:0.59826523px;stroke-linecap:butt;stroke-linejoin:miter;stroke-opacity:1"
       d="M 0.2991391,705.86062 130.85034,663.3106 l 59.95684,11.60455 55.12162,16.43978 38.68184,50.28639 20.30796,54.15457 14.50569,50.28639 49.31934,24.17614 56.08866,8.70342 190.50805,-3.86819 21.27501,-6.76932 8.70341,0 10.6375,7.73637 21.27502,5.80227 49.31934,3.86819 147.95802,-16.43978 34.81365,-25.14319 33.84662,-29.97843 36.74772,-8.70341 56.08867,-1.9341 17.4068,25.1432 35.7807,38.68184 130.5512,-9.67046 59.9569,-0.96705 0,211.50752 -1277.4676711,0 z"
       id="path2985"
       inkscape:connector-curvature="0"
       sodipodi:nodetypes="ccccccccccccccccccccccccccc" />
    <path
       style="fill:#000000;stroke:#000000;stroke-width:0.59826523px;stroke-linecap:butt;stroke-linejoin:miter;stroke-opacity:1"
       d="m 157.4441,683.61856 8.70341,-64.79207 3.38466,-46.90173 -0.48352,-51.73696 -3.38466,-50.28638 0.48352,-26.59377 -1.93409,-19.34091 5.80227,-3.38466 12.5716,0.96704 4.35171,6.2858 -0.96705,34.81365 -1.45057,19.34092 -2.41761,42.55002 1.93409,26.59376 -3.86818,31.91252 -1.45057,85.58356 0,16.43978 -13.53864,3.86818 z"
       id="path2991"
       inkscape:connector-curvature="0" />
    <path
       style="fill:#000000;stroke:#000000;stroke-width:0.59826523px;stroke-linecap:butt;stroke-linejoin:miter;stroke-opacity:1"
       d="m 118.76226,488.27529 1.45057,-16.9233 -1.93409,-16.43979 -0.48352,-7.25284 7.73636,-4.83523 55.60515,12.5716 51.73695,15.95626 0.96705,14.02216 -4.83524,3.86819 -8.21989,-1.9341 11.12103,5.31876 -0.48352,16.43978 -0.48352,5.31875 -5.80228,1.93409 z"
       id="path2993"
       inkscape:connector-curvature="0"
       sodipodi:nodetypes="ccccccccccccccc" />
    <text
       xml:space="preserve"
       style="font-size:40px;font-style:normal;font-weight:normal;line-height:125%;letter-spacing:0px;word-spacing:0px;fill:#000000;fill-opacity:1;stroke:none;font-family:Sans"
       x="-353.18707"
       y="46.950974"
       id="text2995"
       sodipodi:linespacing="125%"><tspan
         sodipodi:role="line"
         id="tspan2997"
         x="-353.18707"
         y="46.950974" /></text>
    <path
       style="fill:#000000;stroke:#000000;stroke-width:1px;stroke-linecap:butt;stroke-linejoin:miter;stroke-opacity:1"
       d="m 1115.7352,839.72849 0.8567,-15.41275 3.7727,-1.4335 -4.2462,-2.93659 -2.6081,-23.10748 7.1727,-4.66882 -8.2613,2.0161 -6.4663,-24.15057 97.4669,-44.26377 67.0813,16.97238 -2.5386,14.5485 1.1671,7.65882 -1.8616,20.21733 -3.6712,1.38467 4.9687,1.66646 -2.6288,29.18846 -1.734,6.23693 2.6489,2.10543 2.8412,11.55378 z"
       id="path3010"
       inkscape:connector-curvature="0"
       sodipodi:nodetypes="cccccccccccccccccccc"
       transform="translate(0,28.362183)" />
    <path
       style="fill:#000000;stroke:#000000;stroke-width:1px;stroke-linecap:butt;stroke-linejoin:miter;stroke-opacity:1"
       d="m 1103.8322,757.11435 -1.4287,-7.71511 29.1116,-15.03727 6.2551,1.25966 -2.6592,-3.10225 5.3416,-2.73122 54.8179,-22.9649 34.8034,14.89691 0.6513,4.19586 1.5159,-2.55697 38.4661,15.75337 0,4.57191 -104.2968,23.71682 z"
       id="path3012"
       inkscape:connector-curvature="0"
       sodipodi:nodetypes="cccccccccccccc"
       transform="translate(0,28.362183)" />
    <text
       xml:space="preserve"
       style="font-size:30.0017662px;font-style:normal;font-weight:normal;line-height:125%;letter-spacing:0px;word-spacing:0px;fill:#ffffff;fill-opacity:1;stroke:none;font-family:Sans"
       x="140.54205"
       y="447.13748"
       id="text3009"
       sodipodi:linespacing="125%"
       transform="matrix(1,0.20101766,0,1,0,0)"><tspan
         sodipodi:role="line"
         id="tspan3011"
         x="140.54205"
         y="447.13748"
         style="font-style:normal;font-variant:normal;font-weight:normal;font-stretch:normal;fill:#ffffff;font-family:Holmes207;-inkscape-font-specification:Holmes207">Story</tspan></text>
    <text
       xml:space="preserve"
       style="font-size:18.76044273px;font-style:normal;font-weight:normal;line-height:125%;letter-spacing:0px;word-spacing:0px;fill:#ffffff;fill-opacity:1;stroke:none;font-family:Sans"
       x="1113.8436"
       y="1191.212"
       id="text3009-0"
       sodipodi:linespacing="125%"
       transform="matrix(1,-0.33903239,0,1,0,0)"><tspan
         sodipodi:role="line"
         id="tspan3011-0"
         x="1113.8436"
         y="1191.212"
         style="font-style:normal;font-variant:normal;font-weight:normal;font-stretch:normal;fill:#ffffff;font-family:Holmes207;-inkscape-font-specification:Holmes207">OPTIONS</tspan></text>
    <path
       style="fill:#000000;stroke:#000000;stroke-width:1px;stroke-linecap:butt;stroke-linejoin:miter;stroke-opacity:1"
       d="m 408.23836,792.33623 -8.1186,-25.42345 0.5047,-1.7395 -5.5962,-16.22056 11.6672,-9.54595 -1.0606,-2.47487 -6.3995,-12.2028 -13.3241,-14.58147 -13.4853,-4.85355 -7.4498,21.73833 0.4749,19.16295 3.0607,13.36396 1.7678,1.41421 13.435,-4.94975 3.182,12.37437 1.0606,-0.35355 10.6066,39.24442 23.62414,91.02213 12.3455,-6.22417 -4.5701,-9.97994 z"
       id="path3034"
       inkscape:connector-curvature="0"
       sodipodi:nodetypes="ccccccccccccccccccccc" />
    <text
       xml:space="preserve"
       style="font-size:53.76399231px;font-style:normal;font-weight:normal;line-height:125%;letter-spacing:0px;word-spacing:0px;fill:#ffffff;fill-opacity:1;stroke:none;font-family:Sans"
       x="538.50085"
       y="522.35791"
       id="text3009-1"
       sodipodi:linespacing="125%"
       transform="matrix(0.91938264,0.44175067,-0.24695936,0.96902584,0,0)"
       inkscape:transform-center-x="4.5"
       inkscape:transform-center-y="-6"><tspan
         sodipodi:role="line"
         id="tspan3011-5"
         x="538.50085"
         y="522.35791"
         style="font-style:normal;font-variant:normal;font-weight:normal;font-stretch:normal;fill:#ffffff;font-family:Holmes207;-inkscape-font-specification:Holmes207">+</tspan></text>
    <path
       style="fill:#000000;stroke:#000000;stroke-width:1px;stroke-linecap:butt;stroke-linejoin:miter;stroke-opacity:1"
       d="m 779.93878,888.31341 31.11269,-90.50967 28.28428,-36.76955 45.96194,-26.87006 23.33452,7.07107 7.77817,16.26345 -11.3137,139.30004 -108.18734,5.65685 z"
       id="path3071"
       inkscape:connector-curvature="0" />
    <text
       xml:space="preserve"
       style="font-size:24.55657959px;font-style:normal;font-weight:normal;line-height:125%;letter-spacing:0px;word-spacing:0px;fill:#ffffff;fill-opacity:1;stroke:none;font-family:Sans"
       x="1394.9114"
       y="1027.7469"
       id="text3009-2"
       sodipodi:linespacing="125%"
       transform="matrix(0.96424877,-0.3130157,-0.50464841,1.2008964,0,0)"><tspan
         sodipodi:role="line"
         id="tspan3011-7"
         x="1394.9114"
         y="1027.7469"
         style="font-style:normal;font-variant:normal;font-weight:normal;font-stretch:normal;fill:#ffffff;font-family:Holmes207;-inkscape-font-specification:Holmes207">R.I.P.</tspan></text>
  </g>
</svg>
