<?xml version="1.0" encoding="UTF-8" standalone="no"?>
<!-- Created with Inkscape (http://www.inkscape.org/) -->

<svg
   xmlns:dc="http://purl.org/dc/elements/1.1/"
   xmlns:cc="http://creativecommons.org/ns#"
   xmlns:rdf="http://www.w3.org/1999/02/22-rdf-syntax-ns#"
   xmlns:svg="http://www.w3.org/2000/svg"
   xmlns="http://www.w3.org/2000/svg"
   xmlns:sodipodi="http://sodipodi.sourceforge.net/DTD/sodipodi-0.dtd"
   xmlns:inkscape="http://www.inkscape.org/namespaces/inkscape"
   width="300"
   height="600"
   id="svg3297"
   version="1.1"
   inkscape:version="0.48.2 r9819"
   sodipodi:docname="Nuovo documento 7">
  <defs
     id="defs3299" />
  <sodipodi:namedview
     id="base"
     pagecolor="#ffffff"
     bordercolor="#666666"
     borderopacity="1.0"
     inkscape:pageopacity="0.0"
     inkscape:pageshadow="2"
     inkscape:zoom="0.24748737"
     inkscape:cx="403.98666"
     inkscape:cy="196.29091"
     inkscape:document-units="px"
     inkscape:current-layer="layer1"
     showgrid="false"
     inkscape:window-width="1100"
     inkscape:window-height="418"
     inkscape:window-x="1280"
     inkscape:window-y="32"
     inkscape:window-maximized="0" />
  <metadata
     id="metadata3302">
    <rdf:RDF>
      <cc:Work
         rdf:about="">
        <dc:format>image/svg+xml</dc:format>
        <dc:type
           rdf:resource="http://purl.org/dc/dcmitype/StillImage" />
        <dc:title></dc:title>
      </cc:Work>
    </rdf:RDF>
  </metadata>
  <g
     inkscape:label="Livello 1"
     inkscape:groupmode="layer"
     id="layer1"
     transform="translate(0,-452.36218)">
    <path
       style="fill:#000000;stroke:#000000;stroke-width:1px;stroke-linecap:butt;stroke-linejoin:miter;stroke-opacity:1"
       d="m 127.01817,1026.5122 c -2.36333,-44.78798 12.56396,-78.73444 3.26715,-135.0782 -0.83039,-13.85847 -9.23602,-32.76709 -2.18297,-41.36992 L 125.58959,502.5836 c 0.25081,-12.3301 23.53421,-18.24413 27.50001,-11.42858 0.004,13.5005 1.14899,27.38121 -1.48455,40.00247 8.1278,94.27766 7.7567,411.58167 10.77027,493.92611 z"
       id="path3859"
       inkscape:connector-curvature="0"
       sodipodi:nodetypes="cccccccc" />
    <path
       style="fill:#000000;stroke:#000000;stroke-width:1px;stroke-linecap:butt;stroke-linejoin:miter;stroke-opacity:1"
       d="m 51.661035,562.94074 189.642855,-52.85715 47.5,17.50001 1.73023,4.39178 -45.73803,46.51376 -191.792205,51.74094 -4.55714,-0.86076 z"
       id="path3861"
       inkscape:connector-curvature="0"
       sodipodi:nodetypes="cccccccc" />
    <g
       transform="matrix(1,-0.25985642,0,1,-22.267545,85.22142)"
       style="font-size:56.96635818px;font-style:normal;font-variant:normal;font-weight:500;font-stretch:normal;text-align:start;line-height:125%;letter-spacing:0px;word-spacing:0px;writing-mode:lr-tb;text-anchor:start;fill:#f9f9f9;fill-opacity:1;stroke:none;font-family:OneDirection;-inkscape-font-specification:OneDirection Medium"
       id="text3863">
      <path
         inkscape:connector-curvature="0"
         d="m 111.16308,509.45564 c 0.4937,3e-5 0.89246,-0.0569 1.19629,-0.1709 0.34179,-0.1139 0.55067,-0.22783 0.62663,-0.3418 0.0759,-0.1139 0.18988,-0.15187 0.3418,-0.11393 0.1519,3e-5 0.34179,0.11397 0.56967,0.3418 0.26583,0.18992 0.66459,0.56969 1.19629,1.13932 0.6456,0.64566 1.04437,1.15835 1.19629,1.53809 0.18987,0.34184 0.22785,0.64566 0.11394,0.91147 -0.076,0.22789 -0.2089,0.70261 -0.39877,1.42415 -0.15192,0.72161 -0.22788,1.55711 -0.22786,2.50652 -2e-5,0.60767 -0.095,1.50015 -0.28484,2.67742 -0.1899,1.17733 -0.3608,2.22171 -0.51269,3.13315 -0.15193,0.91149 -0.20889,1.40519 -0.1709,1.48113 0.11392,0.18991 -0.095,1.70901 -0.62663,4.55731 l -0.79753,4.32944 0.85449,0.79753 c 0.34179,0.37979 0.79752,0.64563 1.3672,0.79753 0.60762,0.11394 1.72796,0.22787 3.36101,0.3418 1.10133,0.076 2.03178,0.15192 2.79135,0.22786 0.79751,0.076 1.48111,0.17091 2.05079,0.28483 0.56964,0.11395 1.04436,0.22788 1.42416,0.3418 0.37975,0.076 0.64559,0.22788 0.79753,0.45573 0.18986,0.1899 0.32278,0.34181 0.39876,0.45573 0.0759,0.11394 0.057,0.34181 -0.057,0.6836 -0.076,0.34181 -0.15194,0.60765 -0.22787,0.79753 -0.076,0.18989 -0.24688,0.53169 -0.51269,1.02539 -0.22789,0.45574 -0.39879,0.81653 -0.5127,1.08236 -0.45576,0.98742 -1.17733,1.74698 -2.16472,2.27866 -0.94946,0.49371 -1.97486,0.66461 -3.07619,0.5127 -1.06339,-0.15191 -3.58889,-0.26585 -7.57652,-0.3418 -2.3926,-0.038 -4.00664,-0.0949 -4.84214,-0.1709 -0.79754,-0.11393 -1.48113,-0.32281 -2.05079,-0.62663 -0.53169,-0.30382 -1.31023,-0.91146 -2.33562,-1.82293 -0.91147,-0.87347 -1.3672,-1.57606 -1.3672,-2.10775 0,-0.53168 0.43675,-1.08235 1.31023,-1.65202 0.79753,-0.4937 1.42416,-1.12033 1.87989,-1.87989 0.45573,-0.79752 0.58865,-1.5191 0.39877,-2.16473 -0.11394,-0.41774 -0.057,-0.77852 0.17089,-1.08236 0.26584,-0.34178 0.39876,-0.93043 0.39877,-1.76595 -1e-5,-0.68358 0.0949,-1.59504 0.28483,-2.73439 0.22786,-1.17728 0.41775,-2.20268 0.56966,-3.07618 0.18989,-0.91144 0.24685,-1.46212 0.1709,-1.65203 -0.076,-0.22784 -0.076,-0.55065 0,-0.96843 0.0759,-0.4557 0.18989,-1.15829 0.3418,-2.10775 0.15191,-0.98739 0.26584,-2.01278 0.3418,-3.07618 0.0759,-1.70896 0.47471,-3.1711 1.19629,-4.38641 0.72157,-1.25323 1.5191,-1.87986 2.39259,-1.87989"
         id="path3020" />
      <path
         inkscape:connector-curvature="0"
         d="m 141.41667,517.48789 c -0.30384,3e-5 -0.60766,0.13295 -0.91147,0.39877 -0.26585,0.26587 -0.6836,0.39879 -1.25326,0.39876 -0.60765,3e-5 -1.12034,0.17093 -1.53809,0.5127 -0.37978,0.34182 -0.45574,0.68362 -0.22786,1.02539 0.18987,0.30385 1.08235,0.3798 2.67742,0.22787 1.44313,-0.11391 2.3356,-0.038 2.67742,0.22786 0.37975,0.26587 0.56964,1.00643 0.56966,2.22169 -2e-5,1.02542 -0.24687,1.82295 -0.74056,2.39259 -0.49373,0.56968 -1.32923,1.06339 -2.50652,1.48113 -1.29125,0.41777 -2.10777,0.85451 -2.44956,1.31022 -0.30383,0.45575 -0.45574,1.42418 -0.45573,2.90529 -1e-5,1.44316 0.13291,2.35462 0.39877,2.73438 0.30381,0.37979 0.79751,0.32282 1.48112,-0.1709 3.83572,-2.77235 6.01943,-4.12055 6.55113,-4.04461 0.26583,0.038 0.39875,0.28485 0.39877,0.74056 -2e-5,0.64564 0.18987,1.12036 0.56966,1.42416 0.22785,0.1899 0.37976,0.55069 0.45573,1.08236 0.0759,0.49372 0.0759,1.3862 0,2.67742 l -0.1709,3.30405 -1.76595,1.59506 c -0.56969,0.49371 -1.12036,0.94944 -1.65203,1.36719 -0.5317,0.37978 -1.00642,0.70259 -1.42416,0.96843 -0.41777,0.26584 -0.83552,0.49371 -1.25326,0.6836 -0.41776,0.15191 -0.75956,0.26584 -1.02539,0.34179 -0.22788,0.076 -0.51271,0.13293 -0.8545,0.1709 -0.34181,0.038 -0.56967,0.057 -0.68359,0.057 -0.11395,0 -0.30384,0 -0.56967,0 -0.26585,-0.038 -0.41776,-0.057 -0.45573,-0.057 -1.48113,-0.11393 -2.98124,-0.4937 -4.50034,-1.13932 -1.48113,-0.64562 -2.50652,-1.38618 -3.07618,-2.22169 -0.41776,-0.53168 -0.87349,-1.70899 -1.3672,-3.53192 -0.49371,-1.82291 -0.72157,-3.13313 -0.68359,-3.93068 0.038,-0.83549 0.32281,-3.07616 0.85449,-6.72203 0.56966,-3.6838 0.98742,-6.13335 1.25326,-7.34866 0.37978,-1.51907 0.75955,-2.67739 1.13933,-3.47494 0.41775,-0.83548 1.0064,-1.61402 1.76596,-2.33562 0.56965,-0.53166 1.08235,-0.85447 1.53809,-0.96843 0.4937,-0.1139 1.65201,-0.17087 3.47495,-0.1709 2.27864,-0.038 3.7028,-0.20884 4.27247,-0.5127 0.60763,-0.30378 1.5001,-0.4557 2.67742,-0.45573 1.17729,3e-5 1.95583,0.13296 2.33562,0.39876 0.37976,0.26588 0.62661,0.89251 0.74057,1.87989 0.15189,1.13936 0.0379,1.93689 -0.3418,2.39259 -0.34182,0.41778 -1.23429,0.87351 -2.67742,1.36719 -1.74699,0.53172 -2.82935,0.79756 -3.24708,0.79753"
         id="path3022" />
      <path
         inkscape:connector-curvature="0"
         d="m 166.08577,528.9951 c -2e-5,0.1899 -0.64564,1.63305 -1.93686,4.32944 -1.25327,2.65844 -1.8799,4.12058 -1.87989,4.38641 -1e-5,0.87349 -0.47473,2.39259 -1.42416,4.55731 -0.1899,0.53169 -0.39877,0.87349 -0.62663,1.02539 -0.22787,0.15192 -0.64563,0.22787 -1.25326,0.22787 -0.91147,0 -1.61405,-0.15191 -2.10775,-0.45573 -0.49372,-0.30382 -0.96844,-0.91146 -1.42416,-1.82293 -0.6836,-1.32921 -1.44316,-3.43696 -2.27866,-6.32326 -0.79753,-2.88628 -1.21528,-4.8801 -1.25326,-5.98147 0,-1.21526 -0.5127,-3.36099 -1.53809,-6.4372 -0.98742,-3.11413 -1.48112,-5.12694 -1.48112,-6.03843 0,-0.56964 0.39876,-1.46211 1.19629,-2.67742 0.79753,-1.21525 1.5191,-1.99379 2.16472,-2.33562 0.41775,-0.26581 1.04438,-0.39873 1.87989,-0.39877 1.02539,-0.0379 1.97483,0.66465 2.84832,2.10776 0.87347,1.4052 1.44314,3.17116 1.70899,5.29787 0.26583,2.39261 0.72156,3.45598 1.36719,3.19012 0.30381,-0.11391 0.62662,-0.56964 0.96843,-1.3672 0.45572,-0.94941 1.61403,-2.52548 3.47495,-4.7282 1.51908,-1.82289 2.71538,-2.98121 3.58888,-3.47495 0.87346,-0.53165 1.87987,-0.6266 3.01922,-0.28483 0.68357,0.18992 1.21526,0.41778 1.59505,0.68359 0.37976,0.26588 0.58863,0.60768 0.62663,1.0254 0.038,0.41778 -0.019,0.85452 -0.17089,1.31022 -0.11396,0.41779 -0.3798,1.00644 -0.79753,1.76596 -0.3798,0.7216 -0.77857,1.44318 -1.1963,2.16472 -0.41777,0.68363 -0.93047,1.59509 -1.53809,2.73439 -0.60766,1.13935 -1.15833,2.2407 -1.65202,3.30405 -0.26587,0.56968 -0.53171,1.12035 -0.79753,1.65202 -0.22789,0.49373 -0.39878,0.8735 -0.5127,1.13933 -0.11395,0.22788 -0.22788,0.45575 -0.3418,0.6836 -0.11395,0.1899 -0.1899,0.34181 -0.22786,0.45573 -2e-5,0.11394 -2e-5,0.20889 0,0.28483"
         id="path3024" />
      <path
         inkscape:connector-curvature="0"
         d="m 188.25815,517.48789 c -0.30384,3e-5 -0.60766,0.13295 -0.91146,0.39877 -0.26586,0.26587 -0.68361,0.39879 -1.25326,0.39876 -0.60766,3e-5 -1.12035,0.17093 -1.53809,0.5127 -0.37979,0.34182 -0.45575,0.68362 -0.22787,1.02539 0.18988,0.30385 1.08235,0.3798 2.67742,0.22787 1.44313,-0.11391 2.3356,-0.038 2.67742,0.22786 0.37976,0.26587 0.56964,1.00643 0.56966,2.22169 -2e-5,1.02542 -0.24687,1.82295 -0.74056,2.39259 -0.49373,0.56968 -1.32923,1.06339 -2.50652,1.48113 -1.29125,0.41777 -2.10777,0.85451 -2.44955,1.31022 -0.30384,0.45575 -0.45575,1.42418 -0.45574,2.90529 -1e-5,1.44316 0.13292,2.35462 0.39877,2.73438 0.30381,0.37979 0.79752,0.32282 1.48112,-0.1709 3.83572,-2.77235 6.01943,-4.12055 6.55114,-4.04461 0.26582,0.038 0.39874,0.28485 0.39876,0.74056 -2e-5,0.64564 0.18987,1.12036 0.56966,1.42416 0.22785,0.1899 0.37976,0.55069 0.45573,1.08236 0.0759,0.49372 0.0759,1.3862 0,2.67742 l -0.17089,3.30405 -1.76596,1.59506 c -0.56968,0.49371 -1.12036,0.94944 -1.65203,1.36719 -0.5317,0.37978 -1.00642,0.70259 -1.42416,0.96843 -0.41776,0.26584 -0.83552,0.49371 -1.25326,0.6836 -0.41776,0.15191 -0.75956,0.26584 -1.02539,0.34179 -0.22788,0.076 -0.51271,0.13293 -0.8545,0.1709 -0.3418,0.038 -0.56967,0.057 -0.68359,0.057 -0.11395,0 -0.30383,0 -0.56966,0 -0.26586,-0.038 -0.41777,-0.057 -0.45574,-0.057 -1.48113,-0.11393 -2.98124,-0.4937 -4.50034,-1.13932 -1.48113,-0.64562 -2.50652,-1.38618 -3.07618,-2.22169 -0.41776,-0.53168 -0.87349,-1.70899 -1.36719,-3.53192 -0.49371,-1.82291 -0.72158,-3.13313 -0.6836,-3.93068 0.038,-0.83549 0.32281,-3.07616 0.85449,-6.72203 0.56967,-3.6838 0.98742,-6.13335 1.25326,-7.34866 0.37978,-1.51907 0.75955,-2.67739 1.13933,-3.47494 0.41775,-0.83548 1.0064,-1.61402 1.76596,-2.33562 0.56966,-0.53166 1.08235,-0.85447 1.53809,-0.96843 0.4937,-0.1139 1.65202,-0.17087 3.47495,-0.1709 2.27864,-0.038 3.7028,-0.20884 4.27248,-0.5127 0.60762,-0.30378 1.50009,-0.4557 2.67741,-0.45573 1.17729,3e-5 1.95583,0.13296 2.33563,0.39876 0.37975,0.26588 0.6266,0.89251 0.74056,1.87989 0.15189,1.13936 0.0379,1.93689 -0.3418,2.39259 -0.34182,0.41778 -1.23429,0.87351 -2.67742,1.36719 -1.74698,0.53172 -2.82934,0.79756 -3.24708,0.79753"
         id="path3026" />
      <path
         inkscape:connector-curvature="0"
         d="m 206.54701,509.45564 c 0.18988,-0.22783 0.36078,-0.32278 0.5127,-0.28483 0.18987,3e-5 0.39875,0.13295 0.62663,0.39876 0.22785,0.2279 0.43673,0.47475 0.62663,0.74056 0.22785,0.26588 0.45572,0.51273 0.68359,0.74056 0.26583,0.2279 0.4937,0.34184 0.6836,0.3418 0.26583,4e-5 0.41774,0.13296 0.45573,0.39877 0.038,0.2279 -1e-5,0.66464 -0.11393,1.31022 -0.22788,1.32925 -0.3608,2.54453 -0.39877,3.64585 -0.076,0.79756 -0.22787,1.80396 -0.45573,3.01922 -0.1899,1.17733 -0.3608,2.16474 -0.51269,2.96225 -0.15193,0.75957 -0.20889,1.19631 -0.1709,1.31022 0.15189,0.22789 -0.057,1.82295 -0.62663,4.78518 l -0.8545,4.50034 1.0254,0.8545 c 0.45571,0.41776 0.93043,0.6836 1.42416,0.79753 0.49369,0.076 1.42414,0.13293 2.79135,0.17089 1.89886,10e-6 3.64582,0.17091 5.2409,0.5127 1.59504,0.30383 2.52549,0.66462 2.79135,1.08236 0.11391,0.15192 0.17088,0.30383 0.1709,0.45573 0.038,0.15192 0.019,0.34181 -0.057,0.56967 -0.076,0.22787 -0.15194,0.43675 -0.22787,0.62663 -0.076,0.18989 -0.22789,0.5127 -0.45573,0.96842 -0.22789,0.45574 -0.41778,0.85451 -0.56966,1.1963 -0.41778,0.94944 -1.12036,1.69 -2.10776,2.22169 -0.98744,0.53168 -2.03182,0.70258 -3.13315,0.51269 -1.06339,-0.1519 -3.58889,-0.24685 -7.57652,-0.28483 -1.55709,-0.038 -2.63945,-0.076 -3.24709,-0.11393 -0.60764,-0.038 -1.25326,-0.076 -1.93685,-0.11393 -0.6836,-0.038 -1.21529,-0.1709 -1.59506,-0.39877 -0.3418,-0.26584 -0.6836,-0.51269 -1.02539,-0.74056 -0.30383,-0.26584 -0.77855,-0.70258 -1.42416,-1.31023 -0.91147,-0.8355 -1.3672,-1.51909 -1.3672,-2.05079 0,-0.56965 0.43674,-1.12033 1.31023,-1.65202 1.06337,-0.68359 1.74696,-1.40516 2.05079,-2.16472 0.34179,-0.75954 0.55067,-1.97482 0.62663,-3.64585 0.11393,-1.671 0.30381,-3.11414 0.56966,-4.32944 0.22786,-0.91144 0.47472,-2.52549 0.74056,-4.84214 0.30382,-2.31661 0.43674,-3.81672 0.39877,-4.50034 -0.038,-1.8229 0.34179,-3.49391 1.13933,-5.01304 0.79752,-1.51907 1.68999,-2.27862 2.67742,-2.27866 0.72156,4e-5 1.1583,-0.13288 1.31022,-0.39876"
         id="path3028" />
      <path
         inkscape:connector-curvature="0"
         d="m 234.35372,509.3417 c 0.49369,-0.15187 1.42414,-0.17086 2.79135,-0.057 1.89886,0.15194 3.26605,0.91149 4.10157,2.27865 0.83549,1.32925 0.94942,2.94329 0.3418,4.84214 -0.37979,1.10138 -0.94946,2.14576 -1.70899,3.13315 -0.75957,0.94947 -1.40519,1.42419 -1.93685,1.42416 -0.56968,3e-5 -1.0444,-0.32278 -1.42416,-0.96843 -0.34182,-0.68357 -0.43676,-1.38615 -0.28483,-2.10775 0.18987,-0.75953 0.0949,-1.1393 -0.28484,-1.13933 -0.34181,3e-5 -0.64563,0.22789 -0.91146,0.6836 -0.22788,0.41778 -0.51271,1.23429 -0.85449,2.44955 -0.22788,0.83553 -0.32283,1.40519 -0.28484,1.70899 0.038,0.30385 0.22786,0.70261 0.56967,1.19629 0.37976,0.53171 0.87347,0.93048 1.48112,1.1963 0.64561,0.26586 1.25325,0.47474 1.82293,0.62663 0.56964,0.11395 1.13931,0.36081 1.70899,0.74056 0.60762,0.34182 1.13931,1.02541 1.59506,2.05079 0.45571,1.02541 0.7975,2.41159 1.02539,4.15854 0.26582,1.86092 0.24683,3.36103 -0.057,4.50035 -0.26586,1.13933 -0.94946,2.44956 -2.05078,3.93067 -1.17733,1.59507 -3.17115,2.62046 -5.98147,3.07619 -2.77238,0.41775 -5.41181,0.11393 -7.91833,-0.91146 -2.5445,-1.02539 -4.02562,-2.14573 -4.44337,-3.36102 -0.41776,-1.25325 0.30382,-2.3546 2.16472,-3.30405 1.06337,-0.56965 1.8609,-0.79752 2.39259,-0.68359 0.56965,0.11394 1.42415,0.66461 2.56348,1.65202 1.13932,0.98743 2.05078,1.5381 2.73439,1.65203 0.68358,0.076 1.29122,-0.24685 1.82292,-0.96843 0.53167,-0.68359 0.87347,-1.32921 1.0254,-1.93686 0.15189,-0.64561 0.15189,-1.48111 0,-2.50652 -0.11395,-0.79751 -0.30384,-1.3292 -0.56967,-1.59506 -0.22788,-0.3038 -0.91147,-0.74054 -2.05079,-1.31022 -2.46855,-1.29122 -4.21551,-2.79134 -5.2409,-4.50035 -1.0254,-1.74694 -1.27225,-3.60784 -0.74056,-5.5827 0.26583,-1.06334 0.70258,-2.25964 1.31022,-3.58888 0.60764,-1.32918 1.23427,-2.41154 1.87989,-3.24708 0.37977,-0.53165 1.1773,-1.19626 2.39259,-1.99382 1.25325,-0.7975 2.25965,-1.31019 3.01922,-1.5381"
         id="path3030" />
    </g>
    <path
       style="fill:#000000;stroke:#000000;stroke-width:1px;stroke-linecap:butt;stroke-linejoin:miter;stroke-opacity:1"
       d="m 44.010205,670.69255 185.357145,50.00001 47.5,-17.50001 4.76594,-4.57035 -45.73803,-46.51376 -191.792205,-51.74092 -3.30714,3.89647 z"
       id="path3861-3"
       inkscape:connector-curvature="0"
       sodipodi:nodetypes="cccccccc" />
    <g
       transform="matrix(1,0.29840498,0,1,-22.267545,85.22142)"
       style="font-size:56.68135452px;font-style:normal;font-variant:normal;font-weight:500;font-stretch:normal;text-align:start;line-height:125%;letter-spacing:0px;word-spacing:0px;writing-mode:lr-tb;text-anchor:start;fill:#f9f9f9;fill-opacity:1;stroke:none;font-family:OneDirection;-inkscape-font-specification:OneDirection Medium"
       id="text3863-1">
      <path
         inkscape:connector-curvature="0"
         d="m 118.63259,510.24318 c 0.8691,-0.15112 1.88937,-0.17001 3.0608,-0.0567 1.20918,0.0756 2.0594,0.24565 2.55066,0.51013 1.1336,0.60464 2.07829,1.79494 2.83406,3.57093 0.75573,1.77604 0.96357,3.32533 0.6235,4.64787 -0.18896,0.86914 -0.62352,2.00276 -1.30367,3.40088 -0.64241,1.36037 -1.20922,2.38064 -1.70044,3.06079 -0.56683,0.71798 -1.09586,1.11475 -1.58708,1.19031 -0.45347,0.0756 -1.00139,-0.13224 -1.64376,-0.62349 -0.41568,-0.34007 -0.68019,-0.68016 -0.79354,-1.02027 -0.0756,-0.34007 -0.0945,-1.02024 -0.0567,-2.04053 0.0756,-1.51148 -1e-5,-2.3428 -0.22673,-2.49398 -0.30231,-0.18891 -0.81244,0.30233 -1.53039,1.47372 -1.47373,2.494 -2.09722,4.96908 -1.87049,7.42526 0.11335,1.51151 0.62349,2.7585 1.5304,3.74097 0.5668,0.60461 1.11472,0.86912 1.64376,0.79354 0.52901,-0.11336 1.43591,-0.66128 2.7207,-1.64376 1.96494,-1.47371 3.38197,-2.21056 4.25111,-2.21058 0.86909,-0.0378 1.88935,0.6613 3.06079,2.09721 1.09581,1.32258 1.64373,2.4562 1.64376,3.40089 -3e-5,0.9069 -0.56684,1.8327 -1.70044,2.77738 -0.6802,0.60461 -1.68157,1.17142 -3.00411,1.70044 -1.32259,0.52903 -2.36175,0.79354 -3.11748,0.79354 -0.37789,0 -0.6613,0.13226 -0.85022,0.39677 -0.11338,0.22673 -0.60462,0.34009 -1.47371,0.34009 -0.86913,0 -1.60599,-0.11336 -2.21058,-0.34009 -0.68019,-0.26451 -1.58709,-0.45345 -2.7207,-0.56681 -1.13364,-0.15115 -2.1728,-0.35898 -3.11748,-0.6235 -0.94469,-0.3023 -1.79491,-0.79353 -2.55066,-1.47371 -0.71797,-0.68017 -1.43593,-1.71933 -2.15389,-3.11748 -0.68018,-1.39813 -1.2092,-2.83406 -1.58708,-4.30778 -0.22672,-0.8691 -0.3023,-2.34282 -0.22672,-4.42115 0.11336,-2.07829 0.3023,-3.45754 0.56681,-4.13773 l 1.07695,-2.66403 c 0.52902,-1.47369 0.94468,-2.49395 1.24699,-3.06079 0.30229,-0.60458 0.73685,-1.26586 1.30367,-1.98385 0.64238,-0.86908 1.75711,-1.79488 3.3442,-2.77739 1.62485,-0.98244 2.94742,-1.56815 3.96769,-1.75712"
         id="path3007" />
      <path
         inkscape:connector-curvature="0"
         d="m 144.82381,509.05287 c 1.62485,-0.1889 3.41976,0.18897 5.38473,1.13363 2.41838,1.09587 4.55337,3.49538 6.40499,7.19853 0.71794,1.43595 1.15249,2.47511 1.30367,3.11748 0.15112,0.60462 0.2267,1.83271 0.22672,3.68429 -2e-5,1.66267 -0.0756,2.87187 -0.22672,3.6276 -0.11339,0.75577 -0.41569,1.75714 -0.9069,3.00411 -0.6802,1.62488 -1.606,3.13638 -2.77739,4.53451 -1.17143,1.39815 -2.30506,2.32394 -3.40088,2.77739 -2.494,1.05805 -4.64788,1.66265 -6.46167,1.8138 -1.81382,0.11337 -3.53315,-0.18893 -5.15801,-0.9069 -3.32531,-1.47371 -5.34694,-4.61008 -6.0649,-9.4091 -0.26452,-1.73822 -0.3212,-3.23083 -0.17005,-4.47783 0.18894,-1.28476 0.6235,-2.6829 1.30367,-4.19442 0.41567,-0.90688 1.13363,-1.92714 2.1539,-3.06079 1.05804,-1.17139 1.92716,-1.88936 2.60734,-2.1539 0.49123,-0.22669 0.77464,-0.43453 0.85022,-0.62349 0.11335,-0.2267 0.11335,-0.68015 0,-1.36035 -0.26452,-1.4359 -0.0189,-2.51285 0.73686,-3.23084 0.75574,-0.71793 2.15388,-1.20917 4.19442,-1.47372 m 3.91101,13.43349 c -0.11338,-1.32255 -0.30232,-2.28613 -0.56681,-2.89075 -0.22674,-0.64237 -0.47236,-1.02024 -0.73686,-1.13363 -0.26453,-0.11334 -0.6613,-0.17002 -1.19031,-0.17005 -0.52904,3e-5 -0.98249,0.0945 -1.36035,0.28341 -0.37789,0.18896 -0.83134,0.56684 -1.36035,1.13363 -1.17143,1.24701 -2.02165,2.60736 -2.55067,4.08106 -0.49124,1.47373 -0.68018,2.7774 -0.56681,3.91101 0.11336,1.13364 0.35897,2.13501 0.73686,3.00411 0.41565,0.83134 0.888,1.34147 1.41703,1.5304 0.49123,0.18895 1.15251,0.0378 1.98385,-0.45345 0.83131,-0.49123 1.43591,-1.07694 1.8138,-1.75712 1.24698,-2.30503 1.96494,-3.81653 2.15389,-4.53451 0.22671,-0.71795 0.30229,-1.71932 0.22673,-3.00411"
         id="path3009" />
      <path
         inkscape:connector-curvature="0"
         d="m 176.10306,510.29986 c 0.26449,-0.4912 0.39675,-0.94465 0.39677,-1.36035 -2e-5,-0.45342 0.26449,-0.96355 0.79354,-1.5304 0.56679,-0.60456 1.03913,-0.90686 1.41703,-0.9069 0.41564,4e-5 1.36033,0.58575 2.83407,1.75713 0.98245,0.79357 1.58705,1.36038 1.8138,1.70044 0.2267,0.34012 0.34006,0.85025 0.34009,1.53039 -3e-5,0.56685 -0.0378,1.11477 -0.11336,1.64376 -0.0756,0.49127 -0.22675,1.49264 -0.45345,3.00411 -0.22675,1.51153 -0.47237,3.43869 -0.73686,5.7815 -0.3779,3.58984 -0.77467,6.70731 -1.19031,9.35242 -0.41569,2.64514 -0.73688,4.08107 -0.96358,4.30779 -0.22675,0.22673 -0.34011,0.6235 -0.34009,1.19031 -2e-5,0.56681 -0.30232,1.2092 -0.9069,1.92716 -0.41569,0.49124 -0.73688,0.77465 -0.96359,0.85022 -0.18895,0.0378 -0.56683,-0.0756 -1.13362,-0.34009 -0.6802,-0.26451 -1.39816,-0.79353 -2.1539,-1.58707 -0.75576,-0.79354 -1.43594,-1.64376 -2.04052,-2.55066 -0.60462,-0.94469 -1.19033,-1.85159 -1.75713,-2.72071 -0.52903,-0.90689 -0.98248,-1.62485 -1.36035,-2.15389 -0.37788,-0.5668 -0.66129,-0.83131 -0.85022,-0.79354 -0.18895,0.0756 -0.39678,0.85023 -0.62349,2.32394 -0.18895,1.47372 -0.39678,3.0419 -0.6235,4.70455 -0.22673,1.62487 -0.45346,2.62624 -0.68017,3.00411 -0.37789,0.56682 -1.11475,1.17142 -2.21058,1.8138 -1.09584,0.64239 -2.07832,1.03916 -2.94743,1.19031 -1.05805,0.18894 -1.73823,0 -2.04053,-0.56681 -0.26451,-0.56681 -0.37787,-1.94606 -0.34009,-4.13774 0.0378,-1.32256 0.13226,-2.94742 0.28341,-4.8746 0.15115,-1.96494 0.34009,-4.34555 0.56682,-7.14185 0.26451,-2.79626 0.45344,-5.02572 0.56681,-6.6884 0.3023,-4.04324 0.5857,-6.72615 0.85022,-8.04875 0.3023,-1.32253 0.77464,-2.26722 1.41703,-2.83407 0.6046,-0.52899 1.37924,-0.73682 2.32394,-0.62349 0.94468,0.11339 1.7949,0.51016 2.55066,1.19031 0.30229,0.30233 0.71795,0.92582 1.24699,1.87048 0.5668,0.90693 1.13361,1.9083 1.70044,3.00411 0.5668,1.09587 1.11472,2.19171 1.64376,3.28752 0.5668,1.05808 1.05804,1.92719 1.47371,2.60734 0.41565,0.6802 0.69906,1.0014 0.85022,0.96359 0.18893,-0.0756 0.34008,-0.8502 0.45346,-2.32394 0.15113,-1.51148 0.28339,-3.09855 0.39677,-4.76123 0.15113,-1.70041 0.32117,-2.72068 0.51013,-3.0608"
         id="path3011" />
      <path
         inkscape:connector-curvature="0"
         d="m 198.33189,508.54274 c 0.15114,0.0756 0.60459,0.0945 1.36036,0.0567 0.79352,-0.0755 1.7571,-0.15111 2.89075,-0.22672 1.1336,-0.0755 2.22944,-0.13222 3.28751,-0.17005 1.05803,-0.0755 1.92715,-0.0566 2.60735,0.0567 0.71793,0.0756 1.03913,0.24565 0.96358,0.51013 -0.0378,0.22676 -0.11339,1.32259 -0.22673,3.28752 -0.11338,1.92719 -0.28343,3.02303 -0.51013,3.28751 -0.26454,0.34012 -0.88803,0.66131 -1.87048,0.96359 -0.94471,0.30232 -1.9083,0.54794 -2.89075,0.73685 -0.9825,0.18897 -1.85161,0.45348 -2.60734,0.79354 -0.75577,0.34012 -1.09586,0.6991 -1.02027,1.07695 0.0756,0.26454 0.2456,0.45347 0.51013,0.56681 0.30229,0.0756 0.81242,0.11339 1.5304,0.11337 1.28476,2e-5 2.0783,0.0945 2.38062,0.2834 0.26449,0.18896 0.34006,0.73688 0.22672,1.64376 -0.0756,0.90692 -0.26453,1.54931 -0.56681,1.92717 -0.11338,0.18895 -1.36037,0.94471 -3.74097,2.26725 -2.34284,1.28479 -3.60873,2.11612 -3.79765,2.49398 -0.6424,1.20922 -1.51152,4.15664 -2.60734,8.84229 -0.3401,1.39815 -0.85023,2.92854 -1.5304,4.59119 -0.6424,1.66265 -1.09585,2.49398 -1.36035,2.49398 -0.49125,0 -1.247,-0.47234 -2.26726,-1.41703 -0.98248,-0.94469 -2.04053,-2.24836 -3.17415,-3.91101 -0.0756,-0.0756 -0.20784,-0.22673 -0.39677,-0.45346 -0.15115,-0.22672 -0.24562,-0.35897 -0.28341,-0.39677 -0.0378,-0.0756 -0.11336,-0.22672 -0.22672,-0.45345 -0.0756,-0.2645 -0.11337,-0.49123 -0.11337,-0.68017 0,-0.22672 0,-0.54792 0,-0.96359 0,-0.45344 0.0378,-0.92578 0.11337,-1.41703 0.0756,-0.52902 0.17004,-1.1714 0.2834,-1.92717 0.11336,-0.75574 0.24562,-1.60596 0.39677,-2.55066 0.18894,-0.94467 0.41566,-2.0594 0.68018,-3.3442 0.41566,-2.19166 0.79353,-4.34555 1.13362,-6.46167 0.37788,-2.11608 0.6235,-3.5709 0.73686,-4.36446 0.15115,-0.8313 0.32119,-1.66263 0.51013,-2.49398 0.22673,-0.8313 0.45345,-1.41701 0.68018,-1.75713 0.26451,-0.34005 0.64238,-0.73682 1.13363,-1.1903 0.68017,-0.56679 1.66264,-1.00134 2.94743,-1.30368 1.32255,-0.30226 2.43728,-0.47231 3.3442,-0.51013 0.90689,-0.0377 1.39812,-0.0377 1.47371,0"
         id="path3013" />
      <path
         inkscape:connector-curvature="0"
         d="m 215.17333,513.64406 c 0.52902,-0.75572 1.03916,-1.07691 1.5304,-0.96358 0.52902,0.0756 1.09583,0.56684 1.70044,1.47372 0.75574,1.09586 1.26587,2.11613 1.5304,3.06079 0.30229,0.94471 0.45344,2.04055 0.45345,3.28752 -1e-5,2.22948 -0.26453,4.72346 -0.79354,7.48194 -0.52904,2.7585 -0.88802,5.21469 -1.07695,7.36857 -0.22673,2.38062 -0.41567,3.85434 -0.56681,4.42115 -0.15116,0.52903 -0.43456,0.88801 -0.85022,1.07694 -0.60461,0.26452 -1.56819,0.24562 -2.89075,-0.0567 -1.28478,-0.3023 -2.22947,-0.71796 -2.83407,-1.24699 -0.37787,-0.37787 -0.62349,-0.77464 -0.73686,-1.19031 -0.0756,-0.45344 -0.11336,-1.32256 -0.11336,-2.60734 0,-1.02025 0.0189,-1.7949 0.0567,-2.32393 0.0756,-0.56681 0.15115,-0.98247 0.22673,-1.24699 0.0756,-0.26451 0.18894,-0.85021 0.34009,-1.75713 0.18893,-0.94467 0.35898,-2.13498 0.51013,-3.57092 0.26451,-2.34281 0.52902,-3.8921 0.79354,-4.64787 0.26451,-0.79352 0.43455,-1.53038 0.51013,-2.21057 0.41566,-2.75847 1.15252,-4.87457 2.21057,-6.34832"
         id="path3015" />
      <path
         inkscape:connector-curvature="0"
         d="m 223.24246,518.91543 c 0.64239,-1.17139 1.28477,-2.22944 1.92717,-3.17416 0.64238,-0.94466 1.28477,-1.7382 1.92716,-2.38061 0.64239,-0.68015 1.22809,-1.26586 1.75713,-1.75713 0.5668,-0.52899 1.1714,-0.92576 1.8138,-1.1903 0.64238,-0.30227 1.1714,-0.54789 1.58708,-0.73686 0.41565,-0.18891 0.92578,-0.32116 1.53039,-0.39677 0.60459,-0.0755 1.02025,-0.11333 1.24699,-0.11336 0.22671,-0.0378 0.60459,-0.0378 1.13363,0 0.5668,3e-5 0.8502,3e-5 0.85022,0 2.41839,3e-5 4.06214,0.18897 4.93128,0.56681 0.86909,0.34012 1.56816,1.11477 2.09721,2.32394 0.34006,0.79356 0.51011,1.32259 0.51013,1.58707 -2e-5,0.26455 -0.13228,0.62353 -0.39677,1.07695 -0.41569,0.60463 -1.00139,1.09587 -1.75712,1.47371 -0.75577,0.37791 -1.5682,0.56684 -2.4373,0.56682 -0.94471,2e-5 -2.1917,0.35901 -3.74097,1.07694 -1.09585,0.52905 -1.83271,0.9825 -2.21057,1.36036 -0.3401,0.34011 -0.79355,1.09586 -1.36035,2.26725 -1.02028,2.04055 -1.53041,4.08107 -1.5304,6.12159 0.0378,2.00275 0.60459,3.74098 1.70044,5.21468 1.776,2.38063 3.57091,2.81518 5.38473,1.30367 0.75573,-0.64238 1.19029,-1.22808 1.30367,-1.75712 0.15113,-0.52901 -0.0567,-0.90689 -0.62349,-1.13363 -0.71799,-0.2645 -1.62489,-1.07693 -2.72071,-2.43729 -1.05807,-1.36034 -1.22811,-2.26724 -0.51013,-2.72071 0.22671,-0.15113 2.24834,-0.28339 6.0649,-0.39677 1.96493,-0.15113 3.45754,-0.17003 4.47783,-0.0567 1.02024,0.0756 1.68152,0.22674 1.98385,0.45345 0.30227,0.18895 0.56678,0.58572 0.79354,1.19031 0.15112,0.41568 0.13222,0.9636 -0.0567,1.64376 -0.15117,0.6424 -0.3779,1.51151 -0.68017,2.60734 -0.30233,1.05806 -0.51016,2.05943 -0.6235,3.00411 -0.18896,1.39815 -0.47237,2.47509 -0.85022,3.23084 -0.3779,0.71797 -1.13365,1.60597 -2.26725,2.66402 -1.20923,1.13363 -2.13502,1.85159 -2.77739,2.15389 -0.64241,0.34009 -1.77603,0.66129 -3.40088,0.96359 -2.19169,0.41566 -4.13775,0.34008 -5.83818,-0.22673 -1.70045,-0.52902 -3.51425,-1.66265 -5.44141,-3.40088 -1.70044,-1.54929 -2.89075,-2.96632 -3.57092,-4.2511 -0.68018,-1.28477 -1.2281,-3.15525 -1.64376,-5.61145 -0.75575,-4.15662 -0.28341,-7.8598 1.41703,-11.10955"
         id="path3017" />
    </g>
    <path
       style="fill:#000000;stroke:#000000;stroke-width:1px;stroke-linecap:butt;stroke-linejoin:miter;stroke-opacity:1"
       d="m 64.451435,765.39837 168.923095,39.99811 2.51068,-2.08408 -1.17939,-62.61918 -170.172005,-45.62492 -2.93433,4.07583 z"
       id="path3861-3-7"
       inkscape:connector-curvature="0"
       sodipodi:nodetypes="ccccccc" />
    <g
       transform="matrix(1,0.29840498,0,1,-22.267545,85.22142)"
       style="font-size:52.90250015px;font-style:normal;font-variant:normal;font-weight:500;font-stretch:normal;text-align:start;line-height:125%;letter-spacing:0px;word-spacing:0px;writing-mode:lr-tb;text-anchor:start;fill:#f9f9f9;fill-opacity:1;stroke:none;font-family:OneDirection;-inkscape-font-specification:OneDirection Medium"
       id="text3863-1-4">
      <path
         inkscape:connector-curvature="0"
         d="m 116.30485,601.78924 c 0.81116,-0.14104 1.7634,-0.15868 2.85673,-0.0529 1.12857,0.0706 1.92211,0.22927 2.38061,0.47612 1.05804,0.56432 1.93974,1.67527 2.64513,3.33286 0.70535,1.65763 0.89932,3.10363 0.58193,4.338 -0.17637,0.8112 -0.58195,1.86924 -1.21676,3.17415 -0.59958,1.26968 -1.12861,2.22192 -1.58708,2.85674 -0.52904,0.67011 -1.02279,1.04043 -1.48127,1.11095 -0.42323,0.0706 -0.93462,-0.12342 -1.53417,-0.58193 -0.38796,-0.3174 -0.63484,-0.63481 -0.74063,-0.95224 -0.0705,-0.3174 -0.0882,-0.95223 -0.0529,-1.90449 0.0705,-1.41072 -1e-5,-2.18662 -0.21161,-2.32771 -0.28216,-0.17632 -0.75828,0.28216 -1.42836,1.37546 -1.37548,2.32773 -1.95741,4.6378 -1.74579,6.93023 0.1058,1.41074 0.58192,2.5746 1.42837,3.49157 0.52901,0.5643 1.0404,0.81118 1.53417,0.74063 0.49375,-0.1058 1.34019,-0.61719 2.53932,-1.53417 1.83394,-1.37546 3.1565,-2.06319 3.96769,-2.0632 0.81115,-0.0353 1.7634,0.61721 2.85674,1.95739 1.02275,1.2344 1.53414,2.29245 1.53417,3.17415 -3e-5,0.84645 -0.52905,1.71052 -1.58708,2.59223 -0.63485,0.56429 -1.56946,1.09332 -2.80383,1.58707 -1.23441,0.49376 -2.20429,0.74064 -2.90964,0.74064 -0.3527,0 -0.61721,0.12344 -0.79353,0.37031 -0.10582,0.21161 -0.56431,0.31742 -1.37547,0.31742 -0.81118,0 -1.49892,-0.10581 -2.0632,-0.31742 -0.63484,-0.24687 -1.48128,-0.42322 -2.53932,-0.52902 -1.05805,-0.14107 -2.02793,-0.33505 -2.90963,-0.58193 -0.88172,-0.28214 -1.67525,-0.74063 -2.38062,-1.37546 -0.6701,-0.63483 -1.3402,-1.60471 -2.01029,-2.90964 -0.63483,-1.30492 -1.12859,-2.64512 -1.48127,-4.02059 -0.21161,-0.81116 -0.28215,-2.18663 -0.21161,-4.1264 0.1058,-1.93974 0.28214,-3.22703 0.52902,-3.86188 l 1.00515,-2.48642 c 0.49376,-1.37544 0.88171,-2.32768 1.16386,-2.85673 0.28214,-0.56427 0.68772,-1.18147 1.21675,-1.85159 0.59956,-0.81114 1.63997,-1.67522 3.12125,-2.59222 1.51653,-0.91695 2.75092,-1.46361 3.70318,-1.63998"
         id="path3033" />
      <path
         inkscape:connector-curvature="0"
         d="m 136.94095,599.35573 c 0.35268,-0.56426 0.8817,-0.26448 1.58708,0.89934 0.35267,0.52905 0.63482,0.8641 0.84644,1.00515 0.2116,0.1411 0.51138,0.17637 0.89934,0.1058 1.19911,-0.28212 2.45114,-0.44082 3.75608,-0.47612 1.34018,-0.0352 2.41586,0.0353 3.22705,0.21161 0.9875,0.24691 1.93974,0.72303 2.85674,1.42837 0.95222,0.67012 1.69285,1.42839 2.2219,2.2748 0.4232,0.67013 0.67008,1.76344 0.74064,3.27996 0.0705,1.51656 -0.0529,2.71568 -0.37032,3.59737 -0.28217,0.70538 -1.11098,1.7458 -2.48642,3.12125 -1.37548,1.37548 -2.45117,2.22192 -3.22705,2.53932 -0.917,0.38796 -1.48129,0.81118 -1.69288,1.26966 -0.21163,0.4585 -0.17636,1.21677 0.1058,2.2748 0.67008,2.50406 1.85157,4.81414 3.54447,6.93023 1.72813,2.08083 3.65025,3.5621 5.76637,4.44381 0.59954,0.24688 0.95222,0.44085 1.05805,0.58193 0.10578,0.17634 0.10578,0.56429 0,1.16385 -0.10583,0.7759 -0.31744,1.35783 -0.63483,1.74579 -0.31744,0.38794 -0.8641,0.74063 -1.63997,1.05805 -1.5871,0.67009 -3.56213,0.49375 -5.92508,-0.52903 -0.95227,-0.38796 -2.32773,-1.53417 -4.1264,-3.43866 -1.7987,-1.90449 -3.03309,-3.5092 -3.70317,-4.81413 -0.74065,-1.41073 -1.21677,-2.13373 -1.42837,-2.169 -0.17635,-0.0353 -0.37033,0.31742 -0.58193,1.05805 -0.21162,0.74064 -0.35269,1.55181 -0.42322,2.43351 -0.0705,0.81118 -0.26452,1.46364 -0.58193,1.9574 -0.31742,0.45848 -0.723,0.68773 -1.21675,0.68773 -0.59957,0 -1.19913,0.47612 -1.79869,1.42837 l -0.89934,1.37546 -3.17415,-2.1161 0,-2.169 c 0.0353,-0.95224 0.1058,-1.86922 0.21161,-2.75093 0.14107,-0.88171 0.29978,-1.69288 0.47612,-2.43352 0.17634,-0.74062 0.45849,-1.90448 0.84644,-3.49156 0.42322,-1.62233 0.81117,-3.26231 1.16386,-4.91993 0.14107,-0.63482 0.40558,-1.6047 0.79353,-2.90964 0.38795,-1.30491 0.65246,-2.41586 0.79354,-3.33286 0.17634,-0.95222 0.21161,-1.8163 0.10581,-2.59222 -0.14108,-0.28212 -0.17635,-0.61717 -0.10581,-1.00515 0.1058,-0.42319 0.19397,-0.70534 0.26451,-0.84644 0.1058,-0.14105 0.31741,-0.56427 0.63483,-1.26966 0.31741,-0.74061 0.63483,-1.58705 0.95225,-2.53932 0.63482,-1.83392 1.02277,-2.8567 1.16385,-3.06834 m 8.51731,8.88762 c -0.14109,-0.24686 -0.81119,-0.3703 -2.0103,-0.37032 -2.43353,2e-5 -3.57975,1.14624 -3.43866,3.43866 0.0705,1.09334 0.22923,1.67527 0.47612,1.74578 0.49375,0.17636 1.49889,-0.4761 3.01544,-1.95739 1.55179,-1.51652 2.20426,-2.46876 1.9574,-2.85673"
         id="path3035" />
      <path
         inkscape:connector-curvature="0"
         d="m 169.72067,606.07434 c -0.28216,3e-5 -0.56431,0.12347 -0.84644,0.37032 -0.24689,0.2469 -0.63485,0.37034 -1.16386,0.37032 -0.5643,2e-5 -1.04042,0.15873 -1.42837,0.47612 -0.35269,0.31744 -0.42323,0.63485 -0.21161,0.95225 0.17634,0.28217 1.00514,0.3527 2.48642,0.21161 1.34018,-0.10579 2.16899,-0.0353 2.48642,0.21161 0.35267,0.2469 0.52901,0.93463 0.52902,2.06319 -1e-5,0.95227 -0.22926,1.6929 -0.68773,2.22191 -0.4585,0.52904 -1.2344,0.98753 -2.32771,1.37546 -1.19913,0.38797 -1.9574,0.79356 -2.27481,1.21676 -0.28215,0.42324 -0.42323,1.32258 -0.42322,2.69803 -1e-5,1.34021 0.12343,2.18665 0.37032,2.53932 0.28214,0.35269 0.74063,0.29979 1.37547,-0.15871 3.56208,-2.57457 5.59001,-3.8266 6.08378,-3.75608 0.24686,0.0353 0.3703,0.26453 0.37032,0.68774 -2e-5,0.59957 0.17633,1.04042 0.52903,1.32256 0.21159,0.17635 0.35266,0.5114 0.42322,1.00515 0.0705,0.4585 0.0705,1.2873 0,2.48641 l -0.15871,3.06835 -1.63998,1.48127 c -0.52904,0.45849 -1.04043,0.88171 -1.53417,1.26966 -0.49377,0.35268 -0.93463,0.65247 -1.32256,0.89934 -0.38797,0.24688 -0.77592,0.45849 -1.16386,0.63483 -0.38796,0.14108 -0.70538,0.24688 -0.95224,0.31742 -0.21163,0.0705 -0.47614,0.12344 -0.79354,0.1587 -0.31743,0.0353 -0.52904,0.0529 -0.63483,0.0529 -0.10582,0 -0.28216,0 -0.52903,0 -0.24688,-0.0353 -0.38796,-0.0529 -0.42322,-0.0529 -1.37547,-0.1058 -2.76857,-0.45848 -4.17929,-1.05805 -1.37547,-0.59956 -2.32772,-1.28729 -2.85674,-2.06319 -0.38795,-0.49376 -0.81117,-1.58707 -1.26966,-3.27996 -0.45849,-1.69287 -0.6701,-2.90963 -0.63483,-3.65027 0.0353,-0.77589 0.29978,-2.85672 0.79354,-6.2425 0.52902,-3.421 0.91697,-5.69581 1.16385,-6.82442 0.35268,-1.41071 0.70537,-2.48639 1.05805,-3.22705 0.38795,-0.77588 0.93461,-1.49888 1.63998,-2.169 0.52902,-0.49373 1.00514,-0.79351 1.42837,-0.89935 0.45848,-0.10577 1.53416,-0.15867 3.22705,-0.1587 2.11609,-0.0352 3.43865,-0.19395 3.96769,-0.47613 0.56428,-0.28211 1.39308,-0.42318 2.48642,-0.42322 1.0933,4e-5 1.8163,0.12347 2.169,0.37032 0.35266,0.24691 0.58191,0.82884 0.68773,1.74578 0.14106,1.05808 0.0352,1.79872 -0.31741,2.22191 -0.31744,0.38798 -1.14624,0.8112 -2.48642,1.26966 -1.62236,0.49378 -2.62751,0.74066 -3.01544,0.74063"
         id="path3037" />
      <path
         inkscape:connector-curvature="0"
         d="m 184.05973,598.66799 c 0.42321,-0.52899 0.75826,-0.8464 1.00514,-0.95224 0.28214,-0.10577 0.86407,-0.12341 1.74579,-0.0529 1.12857,0.10583 2.75091,0.67013 4.86703,1.69288 2.15135,1.02281 3.3681,1.83398 3.65027,2.43351 0.0353,0.0706 0.33503,0.52905 0.89934,1.37547 0.56427,0.8112 1.07566,1.62237 1.53417,2.43351 0.45847,0.77593 0.82879,1.85161 1.11096,3.22705 0.31739,1.34022 0.37029,2.68042 0.1587,4.02059 -0.14109,0.77592 -0.2998,1.71053 -0.47612,2.80384 -0.14109,1.09333 -0.2469,1.83396 -0.31741,2.2219 -0.0706,0.3527 -0.17637,0.82882 -0.31742,1.42837 -0.14109,0.5643 -0.2998,1.04043 -0.47612,1.42837 -0.17636,0.38796 -0.42324,0.81118 -0.74064,1.26966 -0.81119,1.2344 -1.21677,1.93976 -1.21675,2.1161 -2e-5,0.31742 -0.75829,1.14622 -2.27481,2.48641 -1.51655,1.3402 -2.66277,2.20428 -3.43866,2.59223 -1.23441,0.63483 -2.75094,1.11095 -4.54962,1.42836 -1.76342,0.31742 -2.94491,0.31742 -3.54447,0 -0.31742,-0.17634 -0.89934,-0.31741 -1.74578,-0.42322 -0.84644,-0.14107 -1.60471,-0.26451 -2.27481,-0.37031 -0.6701,-0.10581 -1.00514,-0.21161 -1.00514,-0.31742 0,-0.21161 0.59956,-0.79353 1.79868,-1.74578 1.23439,-0.98751 2.1161,-1.58707 2.64513,-1.79869 1.09331,-0.38794 1.18148,-0.75826 0.26451,-1.11095 -0.38796,-0.14107 -0.96988,-0.24687 -1.74578,-0.31741 l -2.0632,-0.15871 -0.10581,-1.26966 c -0.1058,-1.23438 0.33505,-4.23219 1.32257,-8.99343 1.02277,-4.7612 1.74577,-7.61793 2.169,-8.5702 0.0353,-0.0705 0.14107,-0.40556 0.31741,-1.00515 0.21161,-0.59953 0.42322,-1.18146 0.63483,-1.74578 0.21161,-0.59953 0.51139,-1.28727 0.89935,-2.0632 0.38794,-0.77587 0.81116,-1.4636 1.26966,-2.0632 m 6.55991,6.66572 c -0.38797,-0.4232 -0.68775,-0.6348 -0.89935,-0.63483 -0.28216,3e-5 -0.52903,0.42324 -0.74063,1.26966 -0.21162,0.84646 -0.4056,1.79871 -0.58193,2.85673 -0.14108,1.02281 -0.26452,1.64 -0.37032,1.85159 -0.14108,0.2469 -0.65247,2.08085 -1.53417,5.50186 -0.88172,3.38577 -1.35784,5.34316 -1.42837,5.87218 -0.0705,0.49376 0.1058,0.67011 0.52903,0.52902 0.84643,-0.24687 1.93975,-1.21674 3.27995,-2.90963 0.63482,-0.81116 1.12858,-1.58707 1.48127,-2.32771 0.56428,-1.26965 0.96987,-3.1565 1.21676,-5.66057 0.17633,-1.93974 0.19396,-3.3152 0.0529,-4.1264 -0.10582,-0.84641 -0.44087,-1.58705 -1.00514,-2.2219"
         id="path3039" />
      <path
         inkscape:connector-curvature="0"
         d="m 204.54953,604.96339 c 0.49375,-0.70534 0.96987,-1.00512 1.42836,-0.89934 0.49375,0.0706 1.02278,0.52905 1.58708,1.37546 0.70536,1.02281 1.18148,1.97505 1.42837,2.85674 0.28213,0.88173 0.42321,1.90451 0.42322,3.06834 -1e-5,2.08085 -0.24689,4.40856 -0.74064,6.98313 -0.49377,2.5746 -0.82881,4.86704 -1.00515,6.87733 -0.21162,2.22191 -0.38796,3.59737 -0.52902,4.12639 -0.14108,0.49376 -0.4056,0.82881 -0.79354,1.00515 -0.5643,0.24688 -1.46364,0.22925 -2.69803,-0.0529 -1.19912,-0.28215 -2.08083,-0.6701 -2.64512,-1.16386 -0.35269,-0.35268 -0.58193,-0.72299 -0.68773,-1.11095 -0.0705,-0.42322 -0.10581,-1.23439 -0.10581,-2.43351 0,-0.95224 0.0176,-1.67524 0.0529,-2.16901 0.0705,-0.52901 0.14108,-0.91696 0.21161,-1.16385 0.0705,-0.24687 0.17634,-0.79353 0.31742,-1.63998 0.17634,-0.8817 0.33505,-1.99265 0.47612,-3.33286 0.24688,-2.18662 0.49375,-3.63262 0.74064,-4.338 0.24687,-0.74062 0.40558,-1.42835 0.47612,-2.0632 0.38795,-2.57456 1.07568,-4.54959 2.0632,-5.92508"
         id="path3041" />
      <path
         inkscape:connector-curvature="0"
         d="m 214.4084,601.57763 c 1.58707,-0.24685 3.43866,-0.56426 5.55476,-0.95224 2.15136,-0.38792 3.79134,-0.67007 4.91994,-0.84644 1.12857,-0.21158 2.27479,-0.38792 3.43866,-0.52903 1.16384,-0.14104 1.99264,-0.15867 2.48642,-0.0529 0.529,0.10584 0.82878,0.33508 0.89934,0.68773 0.14105,0.7054 0.4232,1.14625 0.84644,1.32256 0.45847,0.17638 1.44598,0.26455 2.96254,0.26452 1.72812,3e-5 2.78617,0.15873 3.17415,0.47612 0.42319,0.28217 0.56426,0.98754 0.42322,2.1161 -0.1411,0.98754 -0.51142,1.72817 -1.11095,2.2219 -0.52906,0.42325 -1.74581,0.96991 -3.65028,1.63998 -1.86924,0.67012 -3.1389,1.00517 -3.80898,1.00515 -0.38797,2e-5 -0.75828,0.12346 -1.11095,0.37032 -0.31743,0.21163 -1.19914,0.38797 -2.64512,0.52902 -1.62236,0.17636 -2.53934,0.40561 -2.75093,0.68773 -0.21163,0.2469 -0.4056,2.73332 -0.58193,7.45926 -0.24689,5.88982 -0.4585,9.55772 -0.63483,11.00372 -0.14109,1.446 -0.4056,2.20427 -0.79354,2.2748 -0.35269,0.0705 -0.68774,0.21161 -1.00515,0.42322 -0.28215,0.21161 -0.49376,0.38795 -0.63483,0.52903 -0.14108,0.17634 -0.33505,0.29978 -0.58192,0.37032 -0.24689,0.0705 -0.49377,-0.0176 -0.74064,-0.26452 -0.31742,-0.28214 -0.72301,-0.51139 -1.21676,-0.68773 -0.45849,-0.21161 -0.81117,-0.45849 -1.05805,-0.74063 -0.24688,-0.28215 -0.47612,-0.75827 -0.68773,-1.42837 -0.31742,-1.12859 -0.26452,-4.54961 0.15871,-10.26309 0.42321,-5.74872 0.51138,-8.97577 0.26451,-9.68115 -0.21161,-0.52901 -0.70537,-0.98749 -1.48127,-1.37547 -0.77591,-0.4232 -1.58708,-0.63481 -2.43351,-0.63483 -0.98752,2e-5 -1.65762,-0.54663 -2.0103,-1.63998 -0.35268,-1.12856 -0.17634,-2.1337 0.52903,-3.01544 0.45848,-0.56426 1.5518,-0.98748 3.27995,-1.26966"
         id="path3043" />
    </g>
    <path
       style="fill:#000000;stroke:#000000;stroke-width:1px;stroke-linecap:butt;stroke-linejoin:miter;stroke-opacity:1"
       d="m 204.80909,865.69496 -130.846175,9.76056 -1.94475,-2.5335 0.91355,-62.40807 131.813555,-15.16381 2.27292,4.60109 z"
       id="path3861-3-7-3"
       inkscape:connector-curvature="0"
       sodipodi:nodetypes="ccccccc" />
    <g
       transform="matrix(1,-0.07344606,0,1,-22.267545,85.22142)"
       style="font-size:60.84347153px;font-style:normal;font-variant:normal;font-weight:500;font-stretch:normal;text-align:start;line-height:125%;letter-spacing:0px;word-spacing:0px;writing-mode:lr-tb;text-anchor:start;fill:#f9f9f9;fill-opacity:1;stroke:none;font-family:OneDirection;-inkscape-font-specification:OneDirection Medium"
       id="text3863-1-4-5">
      <path
         inkscape:connector-curvature="0"
         d="m 127.99505,752.14247 c -0.32451,3e-5 -0.64901,0.14199 -0.97349,0.4259 -0.28395,0.28397 -0.73014,0.42593 -1.33856,0.42591 -0.64901,2e-5 -1.1966,0.18255 -1.64277,0.54759 -0.40564,0.36509 -0.48676,0.73015 -0.24338,1.09518 0.2028,0.32452 1.15602,0.40565 2.85965,0.24337 1.54135,-0.12166 2.49456,-0.0405 2.85964,0.24338 0.40561,0.28396 0.60842,1.07492 0.60843,2.37289 -1e-5,1.09521 -0.26367,1.94702 -0.79096,2.55543 -0.52733,0.60845 -1.4197,1.13576 -2.67711,1.58193 -1.37913,0.4462 -2.25122,0.91267 -2.61627,1.3994 -0.32451,0.48676 -0.48676,1.5211 -0.48675,3.10302 -10e-6,1.54138 0.14196,2.51487 0.4259,2.92048 0.32449,0.40564 0.8518,0.34479 1.58193,-0.18253 4.09678,-2.96103 6.42911,-4.40099 6.997,-4.31989 0.28392,0.0406 0.42589,0.30424 0.42591,0.79097 -2e-5,0.68957 0.20279,1.1966 0.60843,1.52109 0.24336,0.20282 0.4056,0.58816 0.48675,1.15602 0.0811,0.52733 0.0811,1.48054 0,2.85965 l -0.18253,3.52892 -1.88615,1.70361 c -0.60845,0.52732 -1.1966,1.01407 -1.76446,1.46025 -0.56789,0.40562 -1.07492,0.7504 -1.52109,1.03434 -0.4462,0.28394 -0.89238,0.52731 -1.33855,0.73012 -0.4462,0.16225 -0.81126,0.28394 -1.09518,0.36506 -0.24339,0.0811 -0.54761,0.14197 -0.91266,0.18253 -0.36507,0.0406 -0.60844,0.0608 -0.73012,0.0608 -0.1217,0 -0.32451,0 -0.60843,0 -0.28395,-0.0406 -0.4462,-0.0608 -0.48675,-0.0608 -1.58194,-0.12169 -3.18415,-0.52731 -4.80663,-1.21687 -1.58194,-0.68956 -2.67712,-1.48052 -3.28555,-2.3729 -0.44619,-0.56786 -0.93294,-1.82529 -1.46025,-3.77229 -0.52731,-1.94698 -0.77068,-3.34638 -0.73012,-4.1982 0.0406,-0.89236 0.34478,-3.28553 0.91266,-7.17953 0.60843,-3.93452 1.05461,-6.55079 1.33855,-7.84881 0.40562,-1.62246 0.81124,-2.85961 1.21687,-3.71145 0.44618,-0.89234 1.0749,-1.72386 1.88615,-2.49458 0.60843,-0.56784 1.15602,-0.91262 1.64277,-1.03434 0.5273,-0.12165 1.76445,-0.1825 3.71145,-0.18253 2.43373,-0.0405 3.95481,-0.22306 4.56326,-0.54759 0.64899,-0.32446 1.6022,-0.48671 2.85965,-0.48675 1.25741,4e-5 2.08894,0.142 2.49458,0.4259 0.4056,0.28398 0.66926,0.95325 0.79097,2.00784 0.16222,1.2169 0.0405,2.06871 -0.36507,2.55542 -0.36508,0.44622 -1.31829,0.93297 -2.85964,1.46025 -1.86588,0.5679 -3.02191,0.85184 -3.46808,0.85181"
         id="path3046" />
      <path
         inkscape:connector-curvature="0"
         d="m 159.33229,742.10329 c 1.13572,-0.77064 1.82528,-1.17626 2.06868,-1.21687 0.28391,-0.0811 0.64897,0.0406 1.09518,0.36507 0.52729,0.40566 0.89235,1.39943 1.09519,2.98133 0.20278,1.5414 0.1825,3.32614 -0.0609,5.35422 -0.2434,1.8659 -0.58818,3.34642 -1.03434,4.44157 -0.40565,1.09521 -1.15605,2.45405 -2.2512,4.07652 -1.29802,1.82532 -2.00786,3.16388 -2.12953,4.01567 -0.1217,0.85182 0.22307,2.00785 1.03434,3.46807 0.52729,0.89239 0.79094,1.56167 0.79097,2.00784 -3e-5,0.24339 0.20279,0.79098 0.60843,1.64277 0.4056,0.85182 0.68954,2.00785 0.85181,3.46808 0.12166,1.298 0.14194,2.12953 0.0608,2.49458 -0.0812,0.36507 -0.42593,0.85182 -1.03434,1.46025 -1.05465,1.01406 -2.08899,1.3994 -3.10302,1.15602 -1.01408,-0.28393 -2.3932,-1.27771 -4.13736,-2.98133 l -2.37289,-2.37289 -1.27771,1.46024 c -0.56789,0.649 -1.01408,1.19659 -1.33856,1.64277 -0.32451,0.44619 -0.75042,1.05463 -1.27771,1.82531 -0.52733,0.73012 -1.13576,1.56165 -1.82531,2.49458 -0.68957,0.93293 -1.21688,1.52109 -1.58193,1.76446 -0.36507,0.20281 -0.8721,0.30422 -1.52109,0.30422 -0.649,0 -1.19659,-0.12169 -1.64277,-0.36506 -0.40563,-0.28394 -1.0749,-0.9735 -2.00783,-2.06868 -1.09519,-1.25743 -1.78475,-2.25121 -2.06868,-2.98133 -0.28394,-0.73012 -0.3245,-1.52108 -0.12169,-2.3729 0.24337,-0.89236 0.87209,-2.31204 1.88615,-4.25904 1.54136,-2.96103 2.5757,-4.66465 3.10302,-5.11085 0.44618,-0.36504 1.03433,-1.25741 1.76446,-2.67711 0.73011,-1.41966 1.09517,-2.37288 1.09518,-2.85965 -1e-5,-0.28391 -0.28395,-0.89234 -0.85181,-1.8253 -0.52732,-0.93291 -1.19659,-2.02809 -2.00783,-3.28555 -0.77069,-1.29796 -1.31828,-2.27146 -1.64278,-2.92049 -0.48675,-0.89234 -0.7504,-1.46021 -0.79096,-1.70361 -10e-6,-0.28391 0.18252,-0.6084 0.54759,-0.9735 0.5273,-0.56784 0.70983,-1.13571 0.54759,-1.70362 -0.20282,-0.73008 -0.0811,-1.23711 0.36506,-1.52108 0.44618,-0.32446 1.27771,-0.48671 2.49458,-0.48675 2.75823,4e-5 5.19197,1.17634 7.30122,3.52892 l 1.64277,1.82531 1.52109,-1.58193 c 0.32448,-0.32447 1.15601,-1.31825 2.49458,-2.98133 1.3791,-1.66302 2.61625,-2.83933 3.71145,-3.52893"
         id="path3048" />
      <path
         inkscape:connector-curvature="0"
         d="m 169.95328,750.86475 c 0.56787,-0.81121 1.11546,-1.15599 1.64278,-1.03434 0.56786,0.0812 1.17629,0.60847 1.8253,1.58193 0.81124,1.17634 1.35883,2.27152 1.64277,3.28555 0.32449,1.01409 0.48674,2.19039 0.48675,3.52892 -1e-5,2.3932 -0.28395,5.07031 -0.85181,8.03134 -0.56788,2.96106 -0.95322,5.59761 -1.15602,7.90965 -0.24339,2.55543 -0.4462,4.13736 -0.60844,4.74579 -0.16226,0.56788 -0.46647,0.95322 -0.91265,1.15603 -0.649,0.28394 -1.68334,0.26366 -3.10302,-0.0608 -1.37912,-0.3245 -2.39318,-0.77068 -3.04217,-1.33856 -0.40563,-0.40562 -0.66928,-0.83152 -0.79097,-1.27771 -0.0811,-0.48675 -0.12168,-1.41968 -0.12168,-2.7988 0,-1.09518 0.0203,-1.9267 0.0608,-2.49458 0.0811,-0.60843 0.16225,-1.05461 0.24337,-1.33856 0.0811,-0.28393 0.20281,-0.91264 0.36507,-1.88615 0.20281,-1.01404 0.38534,-2.29175 0.54759,-3.83314 0.28393,-2.51484 0.56787,-4.1779 0.85181,-4.98916 0.28393,-0.85179 0.46646,-1.64275 0.54759,-2.3729 0.44618,-2.96102 1.23714,-5.23251 2.37289,-6.81447"
         id="path3050" />
      <path
         inkscape:connector-curvature="0"
         d="m 181.29203,746.97077 c 1.8253,-0.2839 3.95482,-0.64896 6.38857,-1.09518 2.47429,-0.44615 4.36043,-0.77065 5.65844,-0.9735 1.29798,-0.24333 2.61625,-0.44614 3.95483,-0.60843 1.33853,-0.16221 2.29174,-0.18249 2.85964,-0.0608 0.60841,0.12172 0.95319,0.38537 1.03434,0.79096 0.16222,0.81128 0.48672,1.31831 0.97349,1.52109 0.52729,0.20284 1.66303,0.30425 3.40724,0.30421 1.98752,4e-5 3.20439,0.18257 3.65061,0.5476 0.48671,0.32453 0.64896,1.13577 0.48674,2.43373 -0.16228,1.13578 -0.58818,1.98759 -1.27771,2.55543 -0.60846,0.48678 -2.00786,1.11549 -4.1982,1.88615 -2.14983,0.77071 -3.61007,1.15605 -4.38073,1.15602 -0.44621,3e-5 -0.87211,0.142 -1.27771,0.42591 -0.36508,0.2434 -1.37914,0.44621 -3.04217,0.60843 -1.86589,0.20284 -2.92051,0.46649 -3.16386,0.79097 -0.24339,0.28396 -0.46649,3.1436 -0.66928,8.57893 -0.28395,6.77391 -0.52733,10.99239 -0.73012,12.65544 -0.16227,1.66306 -0.46649,2.53515 -0.91266,2.61627 -0.40563,0.0811 -0.79097,0.24337 -1.15602,0.48675 -0.32451,0.24337 -0.56789,0.44618 -0.73012,0.60843 -0.16227,0.20281 -0.38536,0.34478 -0.66928,0.42591 -0.28395,0.0811 -0.56789,-0.0203 -0.85181,-0.30422 -0.36507,-0.3245 -0.83154,-0.58816 -1.3994,-0.79097 -0.52732,-0.24337 -0.93294,-0.52731 -1.21687,-0.85181 -0.28394,-0.32449 -0.5476,-0.87208 -0.79097,-1.64277 -0.36506,-1.29799 -0.30422,-5.23253 0.18254,-11.80363 0.48674,-6.61164 0.58814,-10.32309 0.30421,-11.13436 -0.24338,-0.60841 -0.81125,-1.13572 -1.70361,-1.58193 -0.89238,-0.48672 -1.82531,-0.73009 -2.7988,-0.73012 -1.13575,3e-5 -1.90643,-0.62869 -2.31206,-1.88615 -0.40562,-1.29796 -0.20281,-2.45399 0.60844,-3.46808 0.52731,-0.64896 1.78474,-1.13571 3.77229,-1.46024"
         id="path3052" />
    </g>
  </g>
</svg>
